<svg width="246" height="246" xmlns="http://www.w3.org/2000/svg"><g fill="none" fill-rule="evenodd"><path fill="#7ED321" d="M11 246.526L246.526 11v127.726l-107.516 107.8z"/><path d="M126.103 210.972L107 191.869l6.691-6.691c2.318-2.318 4.52-3.632 6.606-3.943 2.086-.31 3.987.391 5.701 2.106.936.936 1.52 2 1.752 3.195.231 1.193.085 2.385-.44 3.575 1.225-.735 2.49-1.013 3.798-.833 1.308.179 2.5.807 3.576 1.882 1.836 1.837 2.641 3.814 2.414 5.93-.228 2.117-1.417 4.27-3.57 6.456l-7.425 7.426zm-4.382-12.254l5.156 5.156 3.372-3.372c.927-.927 1.43-1.872 1.509-2.834.078-.962-.271-1.832-1.05-2.61-1.75-1.75-3.542-1.733-5.38.052l-3.607 3.608zm-2.782-2.782l2.913-2.913c1.95-2.02 2.152-3.804.604-5.353-.866-.866-1.741-1.237-2.624-1.115-.884.123-1.868.726-2.953 1.81l-2.755 2.756 4.815 4.815zm27.526-21.884l-7.557 7.557 5.117 5.117 8.87-8.87 3.161 3.163-12.805 12.805-19.103-19.103 12.78-12.78 3.187 3.189-8.843 8.843 4.553 4.553 7.557-7.558 3.083 3.084zm11.628-26.9l-5.852 5.852 15.915 15.915-3.936 3.936-15.915-15.915-5.773 5.773-3.188-3.188 15.56-15.56 3.189 3.188zm22.432 1.525l-6.9 6.902 2.623 5.248-4.185 4.185-11.992-26.214 3.647-3.648 26.254 11.953-4.186 4.185-5.26-2.61zm-9.026 2.65l4.775-4.775-9.551-4.75 4.776 9.526z" fill="#FFF"/></g></svg>